<svg xmlns="http://www.w3.org/2000/svg" viewBox="0 0 512 512" role="img" aria-label="D logo">
  <rect width="512" height="512" fill="#FFF8E7"/>
  <path d="M112 92h128c122 0 204 76 204 164s-82 164-204 164H112c-20 0-32-14-32-32V124c0-18 12-32 32-32z" fill="#FFD100" stroke="#1A1208" stroke-width="24" stroke-linejoin="round"/>
  <path d="M148 120v272" fill="none" stroke="#E63946" stroke-width="26" stroke-linecap="round"/>
  <path d="M236 172c64 0 108 38 108 84s-44 84-108 84h-32V172h32z" fill="#FFF8E7" stroke="#1A1208" stroke-width="18" stroke-linejoin="round"/>
  <ellipse cx="170" cy="74" rx="10" ry="20" fill="#1A1208"/>
  <ellipse cx="210" cy="64" rx="11" ry="22" fill="#1A1208"/>
  <ellipse cx="252" cy="58" rx="12" ry="24" fill="#1A1208"/>
  <ellipse cx="294" cy="64" rx="11" ry="22" fill="#1A1208"/>
  <ellipse cx="332" cy="76" rx="10" ry="18" fill="#1A1208"/>
  <path d="M168 148c30 20 60 20 90 0" fill="none" stroke="#1A1208" stroke-width="20" stroke-linecap="round"/>
  <path d="M268 148c30 20 60 20 90 0" fill="none" stroke="#1A1208" stroke-width="20" stroke-linecap="round"/>
  <path d="M252 224c8 10 8 10 16 0" fill="none" stroke="#1A1208" stroke-width="8" stroke-linecap="round"/>
  <path d="M292 224c8 10 8 10 16 0" fill="none" stroke="#1A1208" stroke-width="8" stroke-linecap="round"/>
  <path d="M262 252c10 12 24 12 34 0" fill="none" stroke="#1A1208" stroke-width="8" stroke-linecap="round"/>
  <circle cx="242" cy="242" r="7" fill="#FF8FAB"/>
  <circle cx="328" cy="242" r="7" fill="#FF8FAB"/>
</svg>
